<svg xmlns="http://www.w3.org/2000/svg" viewBox="0 0 200 240" data-char="cookie"><defs><radialGradient id="cookie-g" cx="35%" cy="28%" r="80%"><stop offset="0" stop-color="#e8b787"/><stop offset=".5" stop-color="#c98a4b"/><stop offset="1" stop-color="#8a5424"/></radialGradient><mask id="cookie-bite"><rect width="200" height="240" fill="#fff"/><circle cx="154" cy="60" r="24" fill="#000"/></mask></defs><ellipse class="shadow" cx="100" cy="212" rx="58" ry="8" fill="#000" opacity=".12"/><g class="leg-l" style="transform-origin:84px 176px"><line x1="84" y1="176" x2="81" y2="196" stroke="#8a5424" stroke-width="7" stroke-linecap="round"/><ellipse cx="77" cy="200" rx="13" ry="7" fill="#6b3a10" stroke="#3a2e2e" stroke-width="2.5"/></g><g class="leg-r" style="transform-origin:116px 176px"><path d="M116,176 Q126,186 142,182" fill="none" stroke="#8a5424" stroke-width="7" stroke-linecap="round"/><ellipse cx="148" cy="182" rx="13" ry="7" fill="#6b3a10" stroke="#3a2e2e" stroke-width="2.5" transform="rotate(-50 148 182)"/></g><g class="arm-l" style="transform-origin:42px 120px"><path d="M42,120 Q12,140 46,162" fill="none" stroke="#8a5424" stroke-width="7" stroke-linecap="round"/></g><g class="arm-r" style="transform-origin:158px 116px"><path d="M158,116 Q188,108 184,76" fill="none" stroke="#8a5424" stroke-width="7" stroke-linecap="round"/></g><g mask="url(#cookie-bite)"><circle cx="100" cy="112" r="62" fill="url(#cookie-g)" stroke="#8a5424" stroke-width="3"/><ellipse cx="66" cy="80" rx="6" ry="4.8" fill="#4a2a10" transform="rotate(20 66 80)"/><ellipse cx="128" cy="88" rx="5" ry="4.0" fill="#4a2a10" transform="rotate(20 128 88)"/><ellipse cx="60" cy="132" rx="5" ry="4.0" fill="#4a2a10" transform="rotate(20 60 132)"/><ellipse cx="140" cy="138" rx="6" ry="4.8" fill="#4a2a10" transform="rotate(20 140 138)"/><ellipse cx="100" cy="160" rx="6" ry="4.8" fill="#4a2a10" transform="rotate(20 100 160)"/><ellipse cx="84" cy="100" rx="4" ry="3.2" fill="#4a2a10" transform="rotate(20 84 100)"/><ellipse cx="120" cy="124" rx="4" ry="3.2" fill="#4a2a10" transform="rotate(20 120 124)"/><ellipse cx="116" cy="150" rx="4" ry="3.2" fill="#4a2a10" transform="rotate(20 116 150)"/></g><clipPath id="cookie-bitec"><circle cx="100" cy="112" r="63"/></clipPath><circle cx="154" cy="60" r="24" fill="none" stroke="#8a5424" stroke-width="3" clip-path="url(#cookie-bitec)"/><circle cx="176" cy="72" r="3" fill="#c98a4b"/><circle cx="170" cy="86" r="2" fill="#c98a4b"/><circle cx="182" cy="90" r="2.5" fill="#8a5424"/><g class="arm-l" style="transform-origin:42px 120px"><g fill="#fff" stroke="#3a2e2e" stroke-width="2.5"><circle cx="46" cy="162" r="9"/><circle cx="39" cy="156" r="4.5"/><circle cx="37" cy="164" r="4.5"/><circle cx="41" cy="171" r="4.2"/></g></g><g class="arm-r" style="transform-origin:158px 116px"><g fill="#fff" stroke="#3a2e2e" stroke-width="2.5"><circle cx="184" cy="76" r="9"/><circle cx="191" cy="70" r="4.5"/><circle cx="193" cy="78" r="4.5"/><circle cx="189" cy="85" r="4.2"/></g></g><g class="face" style="transform-origin:100px 108px"><g class="blush"><ellipse cx="59" cy="125" rx="9" ry="6" fill="#ff8fa3" opacity="0.55"/><ellipse cx="141" cy="125" rx="9" ry="6" fill="#ff8fa3" opacity="0.55"/></g><g class="eye" style="transform-origin:78px 108px"><ellipse cx="78" cy="108" rx="15" ry="16.2" fill="#fff" stroke="#3a2e2e" stroke-width="2.5"/><g class="pupil"><circle cx="80.1" cy="107.5" r="9.3" fill="#2b2b2b"/><circle cx="80.1" cy="107.5" r="6.0" fill="#1a1a1a"/><circle cx="76.8" cy="103.8" r="3.0" fill="#fff"/><circle cx="82.8" cy="110.5" r="1.3" fill="#fff" opacity=".8"/></g></g><g class="eye" style="transform-origin:122px 108px"><ellipse cx="122" cy="108" rx="15" ry="16.2" fill="#fff" stroke="#3a2e2e" stroke-width="2.5"/><g class="pupil"><circle cx="124.1" cy="107.5" r="9.3" fill="#2b2b2b"/><circle cx="124.1" cy="107.5" r="6.0" fill="#1a1a1a"/><circle cx="120.8" cy="103.8" r="3.0" fill="#fff"/><circle cx="126.8" cy="110.5" r="1.3" fill="#fff" opacity=".8"/></g></g><g class="brows" style="transform-origin:100.0px 85px"><g fill="none" stroke="#3a2e2e" stroke-width="4" stroke-linecap="round"><path d="M68,83 Q78,73 88,81"/><path d="M112,87 Q122,84 132,87"/></g></g><g class="mouth" style="transform-origin:100px 137px"><path d="M84,137 Q100,153 118,133" fill="none" stroke="#3a2e2e" stroke-width="4" stroke-linecap="round"/><ellipse cx="109" cy="145" rx="6" ry="5" fill="#ff7b9c" stroke="#3a2e2e" stroke-width="2"/></g></g><g class="fx" opacity="0"><circle cx="168" cy="40" r="3.5" fill="#c98a4b"/><circle cx="182" cy="54" r="3" fill="#8a5424"/><circle cx="176" cy="30" r="2.5" fill="#4a2a10"/><circle cx="190" cy="44" r="2.5" fill="#c98a4b"/><circle cx="160" cy="24" r="3" fill="#8a5424"/><circle cx="186" cy="70" r="3" fill="#c98a4b"/></g></svg>