<svg xmlns="http://www.w3.org/2000/svg" viewBox="0 0 200 240" data-char="nest"><defs><radialGradient id="nest-g" cx="40%" cy="60%" r="80%"><stop offset="0" stop-color="#d9a066"/><stop offset=".5" stop-color="#b5723e"/><stop offset="1" stop-color="#6b3a10"/></radialGradient></defs><ellipse class="shadow" cx="100" cy="212" rx="68" ry="8" fill="#000" opacity=".12"/><g class="leg-l" style="transform-origin:84px 178px"><line x1="84" y1="178" x2="81" y2="198" stroke="#6b3a10" stroke-width="7" stroke-linecap="round"/><ellipse cx="77" cy="202" rx="13" ry="7" fill="#8a5424" stroke="#3a2e2e" stroke-width="2.5"/></g><g class="leg-r" style="transform-origin:116px 178px"><line x1="116" y1="178" x2="119" y2="198" stroke="#6b3a10" stroke-width="7" stroke-linecap="round"/><ellipse cx="123" cy="202" rx="13" ry="7" fill="#8a5424" stroke="#3a2e2e" stroke-width="2.5"/></g><g class="arm-l" style="transform-origin:40px 134px"><path d="M40,134 Q22,136 6,142" fill="none" stroke="#6b3a10" stroke-width="7" stroke-linecap="round"/></g><g class="arm-r" style="transform-origin:160px 134px"><path d="M160,134 Q178,136 194,142" fill="none" stroke="#6b3a10" stroke-width="7" stroke-linecap="round"/></g><ellipse cx="100" cy="110" rx="64" ry="18" fill="#5a3010"/><g class="egg-l" style="transform-origin:70px 120px"><ellipse cx="70" cy="104" rx="15" ry="19" fill="#bde0fe" stroke="#3a2e2e" stroke-width="2.5"/></g><g class="egg-r" style="transform-origin:130px 120px"><ellipse cx="130" cy="104" rx="15" ry="19" fill="#ffb3c6" stroke="#3a2e2e" stroke-width="2.5"/></g><g class="chick" style="transform-origin:100px 100px"><circle cx="100" cy="86" r="14" fill="#ffd23f" stroke="#3a2e2e" stroke-width="2.5"/><circle cx="95" cy="84" r="2.5" fill="#1a1a1a"/><circle cx="105" cy="84" r="2.5" fill="#1a1a1a"/><path d="M96,92 L100,97 L104,92 Z" fill="#ff8a00" stroke="#3a2e2e" stroke-width="1.5"/></g><path d="M82,108 Q82,84 100,82 Q118,84 118,108 Z" fill="none"/><path d="M82,108 L88,100 L94,108 L100,100 L106,108 L112,100 L118,108 V112 H82 Z" fill="#ffe08a" stroke="#3a2e2e" stroke-width="2.5" stroke-linejoin="round"/><clipPath id="nest-nestc"><path d="M36,112 Q36,178 100,180 Q164,178 164,112 Z"/></clipPath><path d="M36,112 Q36,178 100,180 Q164,178 164,112 Z" fill="url(#nest-g)" stroke="#5a3010" stroke-width="3"/><g clip-path="url(#nest-nestc)" stroke-linecap="round" stroke-width="3" fill="none"><path d="M30,120 Q55.0,148.0 80,160" stroke="#5a3010" opacity=".7"/><path d="M50,170 Q85.0,152.0 120,118" stroke="#e6bc93" opacity=".7"/><path d="M90,176 Q125.0,161.0 160,130" stroke="#5a3010" opacity=".7"/><path d="M140,176 Q100.0,171.0 60,150" stroke="#e6bc93" opacity=".7"/><path d="M36,140 Q68.0,167.0 100,178" stroke="#5a3010" opacity=".7"/><path d="M110,112 Q140.0,139.0 170,150" stroke="#e6bc93" opacity=".7"/><path d="M60,118 Q40.0,147.0 20,160" stroke="#5a3010" opacity=".7"/></g><ellipse cx="100" cy="112" rx="64" ry="18" fill="none" stroke="#5a3010" stroke-width="3"/><g class="face" style="transform-origin:100px 140px"><g class="blush"><ellipse cx="63" cy="155" rx="9" ry="6" fill="#ff8fa3" opacity="0.55"/><ellipse cx="137" cy="155" rx="9" ry="6" fill="#ff8fa3" opacity="0.55"/></g><g class="eye" style="transform-origin:80px 140px"><ellipse cx="80" cy="140" rx="13" ry="14.0" fill="#fff" stroke="#3a2e2e" stroke-width="2.5"/><g class="pupil"><circle cx="80.0" cy="140.8" r="8.1" fill="#2b2b2b"/><circle cx="80.0" cy="140.8" r="5.2" fill="#1a1a1a"/><circle cx="77.1" cy="137.5" r="2.6" fill="#fff"/><circle cx="82.3" cy="143.4" r="1.2" fill="#fff" opacity=".8"/></g></g><g class="eye" style="transform-origin:120px 140px"><ellipse cx="120" cy="140" rx="13" ry="14.0" fill="#fff" stroke="#3a2e2e" stroke-width="2.5"/><g class="pupil"><circle cx="120.0" cy="140.8" r="8.1" fill="#2b2b2b"/><circle cx="120.0" cy="140.8" r="5.2" fill="#1a1a1a"/><circle cx="117.1" cy="137.5" r="2.6" fill="#fff"/><circle cx="122.3" cy="143.4" r="1.2" fill="#fff" opacity=".8"/></g></g><g class="brows" style="transform-origin:100.0px 119px"><g fill="none" stroke="#3a2e2e" stroke-width="4" stroke-linecap="round"><path d="M70,122 Q80,114 90,122"/><path d="M110,122 Q120,114 130,122"/></g></g><g class="mouth" style="transform-origin:100px 163px"><path d="M88,163 Q100,173 112,163" fill="none" stroke="#3a2e2e" stroke-width="4" stroke-linecap="round"/></g></g><g class="arm-l" style="transform-origin:40px 134px"><g fill="#fff" stroke="#3a2e2e" stroke-width="2.5"><circle cx="6" cy="142" r="9"/><circle cx="-1" cy="136" r="4.5"/><circle cx="-3" cy="144" r="4.5"/><circle cx="1" cy="151" r="4.2"/></g></g><g class="arm-r" style="transform-origin:160px 134px"><g fill="#fff" stroke="#3a2e2e" stroke-width="2.5"><circle cx="194" cy="142" r="9"/><circle cx="201" cy="136" r="4.5"/><circle cx="203" cy="144" r="4.5"/><circle cx="199" cy="151" r="4.2"/></g></g><g class="fx" opacity="0"><g fill="#ff8a00"><ellipse cx="126" cy="60" rx="5" ry="3.5" transform="rotate(-20 126 60)"/><path d="M130,59 V43 h8" fill="none" stroke="#ff8a00" stroke-width="2.5"/></g><g fill="#ff8a00"><ellipse cx="150" cy="44" rx="5" ry="3.5" transform="rotate(-20 150 44)"/><path d="M154,43 V27 h8" fill="none" stroke="#ff8a00" stroke-width="2.5"/></g><path transform="translate(50 60) scale(1.0)" d="M0,10 C-9,3 -10,-4 -5,-6 C-2,-7 0,-4 0,-3 C0,-4 2,-7 5,-6 C10,-4 9,3 0,10Z" fill="#ff70a6" stroke="#fff" stroke-width="1.2"/></g></svg>