<svg xmlns="http://www.w3.org/2000/svg" viewBox="0 0 200 240" data-char="zipper"><defs><linearGradient id="zipper-fab" x1="0" y1="0" x2="0" y2="1"><stop offset="0" stop-color="#7fc4f0"/><stop offset="1" stop-color="#1b4f9c"/></linearGradient></defs><ellipse class="shadow" cx="100" cy="212" rx="52" ry="8" fill="#000" opacity=".12"/><g class="leg-l" style="transform-origin:86px 176px"><line x1="86" y1="176" x2="83" y2="196" stroke="#1b4f9c" stroke-width="7" stroke-linecap="round"/><ellipse cx="79" cy="200" rx="13" ry="7" fill="#e63946" stroke="#3a2e2e" stroke-width="2.5"/></g><g class="leg-r" style="transform-origin:114px 176px"><path d="M114,176 Q124,186 140,182" fill="none" stroke="#1b4f9c" stroke-width="7" stroke-linecap="round"/><ellipse cx="146" cy="182" rx="13" ry="7" fill="#e63946" stroke="#3a2e2e" stroke-width="2.5" transform="rotate(-50 146 182)"/></g><g class="arm-l" style="transform-origin:62px 110px"><path d="M62,110 Q36,104 38,68" fill="none" stroke="#1b4f9c" stroke-width="7" stroke-linecap="round"/></g><g class="arm-r" style="transform-origin:138px 110px"><path d="M138,110 Q164,104 162,68" fill="none" stroke="#1b4f9c" stroke-width="7" stroke-linecap="round"/></g><rect x="62" y="40" width="76" height="144" rx="16" fill="url(#zipper-fab)" stroke="#1b4f9c" stroke-width="3"/><path d="M62,60 h76 M62,164 h76" stroke="#1b4f9c" stroke-width="2" stroke-dasharray="4 4" opacity=".6"/><rect x="94" y="46" width="12" height="132" fill="#cfd8e3"/><rect x="102" y="50" width="6" height="4" fill="#8a94a3"/><rect x="92" y="58" width="6" height="4" fill="#8a94a3"/><rect x="102" y="66" width="6" height="4" fill="#8a94a3"/><rect x="92" y="74" width="6" height="4" fill="#8a94a3"/><rect x="102" y="82" width="6" height="4" fill="#8a94a3"/><rect x="92" y="90" width="6" height="4" fill="#8a94a3"/><rect x="102" y="98" width="6" height="4" fill="#8a94a3"/><rect x="92" y="106" width="6" height="4" fill="#8a94a3"/><rect x="102" y="114" width="6" height="4" fill="#8a94a3"/><rect x="92" y="122" width="6" height="4" fill="#8a94a3"/><rect x="102" y="130" width="6" height="4" fill="#8a94a3"/><rect x="92" y="138" width="6" height="4" fill="#8a94a3"/><rect x="102" y="146" width="6" height="4" fill="#8a94a3"/><rect x="92" y="154" width="6" height="4" fill="#8a94a3"/><rect x="102" y="162" width="6" height="4" fill="#8a94a3"/><rect x="92" y="170" width="6" height="4" fill="#8a94a3"/><ellipse cx="74" cy="58" rx="8" ry="4" fill="#fff" opacity="0.5" transform="rotate(-70 74 58)"/><g class="face" style="transform-origin:100px 108px"><g class="blush"><ellipse cx="61" cy="123" rx="9" ry="6" fill="#ff8fa3" opacity="0.55"/><ellipse cx="139" cy="123" rx="9" ry="6" fill="#ff8fa3" opacity="0.55"/></g><g class="eye" style="transform-origin:78px 108px"><ellipse cx="78" cy="108" rx="13" ry="14.0" fill="#fff" stroke="#3a2e2e" stroke-width="2.5"/><g class="pupil"><circle cx="78.5" cy="107.2" r="8.1" fill="#2b2b2b"/><circle cx="78.5" cy="107.2" r="5.2" fill="#1a1a1a"/><circle cx="75.6" cy="104.0" r="2.6" fill="#fff"/><circle cx="80.8" cy="109.8" r="1.2" fill="#fff" opacity=".8"/></g></g><g class="eye" style="transform-origin:122px 108px"><ellipse cx="122" cy="108" rx="13" ry="14.0" fill="#fff" stroke="#3a2e2e" stroke-width="2.5"/><g class="pupil"><circle cx="122.5" cy="107.2" r="8.1" fill="#2b2b2b"/><circle cx="122.5" cy="107.2" r="5.2" fill="#1a1a1a"/><circle cx="119.6" cy="104.0" r="2.6" fill="#fff"/><circle cx="124.8" cy="109.8" r="1.2" fill="#fff" opacity=".8"/></g></g><g class="brows" style="transform-origin:100.0px 87px"><g fill="none" stroke="#3a2e2e" stroke-width="4" stroke-linecap="round"><path d="M68,83 Q78,73 88,83"/><path d="M112,83 Q122,73 132,83"/></g></g><g class="mouth" style="transform-origin:100px 131px"><clipPath id="zipper-mZ"><path d="M80,131 C90,165 110,165 120,131 Z"/></clipPath><path d="M80,131 C90,165 110,165 120,131 Z" fill="#6e1a2b" stroke="#3a2e2e" stroke-width="2.5"/><g clip-path="url(#zipper-mZ)"><rect x="80" y="129" width="40" height="7" fill="#fff"/><ellipse cx="100" cy="155" rx="12" ry="8" fill="#ff7b9c"/></g></g></g><g class="slider" style="transform-origin:100px 57px"><rect x="88" y="48" width="24" height="18" rx="5" fill="#e6ebf0" stroke="#5a6472" stroke-width="2.5"/><rect x="96" y="64" width="8" height="18" rx="3" fill="#cfd8e3" stroke="#5a6472" stroke-width="2"/><circle cx="100" cy="86" r="4" fill="none" stroke="#5a6472" stroke-width="2.5"/></g><g class="arm-l" style="transform-origin:62px 110px"><g fill="#fff" stroke="#3a2e2e" stroke-width="2.5"><circle cx="38" cy="68" r="9"/><circle cx="31" cy="62" r="4.5"/><circle cx="29" cy="70" r="4.5"/><circle cx="33" cy="77" r="4.2"/></g></g><g class="arm-r" style="transform-origin:138px 110px"><g fill="#fff" stroke="#3a2e2e" stroke-width="2.5"><circle cx="162" cy="68" r="9"/><circle cx="169" cy="62" r="4.5"/><circle cx="171" cy="70" r="4.5"/><circle cx="167" cy="77" r="4.2"/></g></g><g class="whoosh" style="transform-origin:100px 72px"><path d="M40,60 h10 M36,72 h14 M40,84 h10 M150,60 h10 M150,72 h14 M150,84 h10" stroke="#7fc4f0" stroke-width="3" stroke-linecap="round"/></g></svg>